# MagicaVoxel @ Ephtracy

# group
o 

# material
mtllib zimen.mtl
usemtl palette

# normals
vn -1 0 0
vn 1 0 0
vn 0 0 1
vn 0 0 -1
vn 0 -1 0
vn 0 1 0

# texcoords
vt 0.373047 0.5
vt 0.744141 0.5
vt 0.896484 0.5
vt 0.904297 0.5

# verts
v -3.2 0 3.2
v -3.2 0 -3.2
v -3.2 0.4 3.2
v -3.2 0.4 -0.7
v -3.2 0.4 -2.8
v -3.2 0.4 -3.2
v -3.2 0.5 -0.7
v -3.2 0.5 -2.8
v -3 1.2 0.6
v -3 1.2 -0.1
v -3 2.5 0.6
v -3 2.5 -0.1
v -2.9 0.4 2.3
v -2.9 0.4 -0.7
v -2.9 0.5 2.3
v -2.9 0.5 -0.7
v -2.8 0.5 0.4
v -2.8 0.5 0.0999999
v -2.8 1.2 0.4
v -2.8 1.2 0.0999999
v -2.7 0.4 -2.8
v -2.7 0.4 -3.2
v -2.7 0.5 -2.4
v -2.7 0.5 -2.8
v -2.7 0.6 -2.4
v -2.7 0.6 -3.2
v -2.5 0.4 2.8
v -2.5 0.4 1.3
v -2.5 0.6 2.8
v -2.5 0.6 1.3
v -2.5 1.3 -0.7
v -2.5 1.3 -1.4
v -2.5 2.6 -0.7
v -2.5 2.6 -1.4
v -2.3 0.5 -0.9
v -2.3 0.5 -1.2
v -2.3 1.3 -0.9
v -2.3 1.3 -1.2
v -1.8 0.4 1.3
v -1.8 0.4 0.2
v -1.8 0.5 1.3
v -1.8 0.5 0.2
v -1.7 0.4 -0.4
v -1.7 0.4 -2
v -1.7 0.5 -0.4
v -1.7 0.5 -2
v -1.2 0.3 0.4
v -1.2 0.3 0.0999999
v -1.2 0.4 0.4
v -1.2 0.4 0.2
v -1.2 0.4 0.0999999
v -1.2 0.5 0.4
v -1.2 0.5 0.2
v -0.3 0.4 2
v -0.3 0.4 0.2
v -0.3 0.5 2
v -0.3 0.5 0.2
v 1.1 0.4 2.8
v 1.1 0.4 2
v 1.1 0.4 -0.5
v 1.1 0.4 -1.6
v 1.1 0.5 2.8
v 1.1 0.5 2
v 1.1 0.5 -0.5
v 1.1 0.5 -1.6
v 1.6 2.7 1.4
v 1.6 2.7 -0.7
v 1.6 5 1.4
v 1.6 5 -0.7
v 1.8 0.4 0.9
v 1.8 0.4 -1.9
v 1.8 0.5 0.9
v 1.8 0.5 -1.9
v 2.2 0.4 2.9
v 2.2 0.4 0.9
v 2.2 0.5 2.9
v 2.2 0.5 0.9
v 2.2 0.5 0.6
v 2.2 0.5 0.0999999
v 2.2 2.7 0.6
v 2.2 2.7 0.0999999
v -2.6 0.4 2.3
v -2.6 0.4 0.4
v -2.6 0.4 0.0999999
v -2.6 0.4 -0.7
v -2.6 0.5 2.3
v -2.6 0.5 0.4
v -2.6 0.5 0.0999999
v -2.6 0.5 -0.7
v -2.4 0.4 0.4
v -2.4 0.4 0.0999999
v -2.4 1.2 0.4
v -2.4 1.2 0.0999999
v -2.2 0.4 -0.7
v -2.2 0.4 -0.9
v -2.2 0.4 -1.2
v -2.2 0.4 -2.4
v -2.2 0.5 -0.7
v -2.2 0.5 -0.9
v -2.2 0.5 -1.2
v -2.2 0.5 -2.4
v -2.2 1.2 0.6
v -2.2 1.2 -0.1
v -2.2 2.5 0.6
v -2.2 2.5 -0.1
v -1.9 0.4 -0.9
v -1.9 0.4 -1.2
v -1.9 1.3 -0.9
v -1.9 1.3 -1.2
v -1.8 0.4 -2.4
v -1.8 0.4 -3.2
v -1.8 0.6 -2.4
v -1.8 0.6 -3.2
v -1.7 0.4 2.8
v -1.7 0.4 2
v -1.7 0.5 2
v -1.7 0.5 1.3
v -1.7 0.6 2.8
v -1.7 0.6 1.3
v -1.7 1.3 -0.7
v -1.7 1.3 -1.4
v -1.7 2.6 -0.7
v -1.7 2.6 -1.4
v -1.6 0.3 0.4
v -1.6 0.3 0.0999999
v -1.6 0.4 0.4
v -1.6 0.4 0.2
v -1.6 0.4 0.0999999
v -1.6 0.5 0.4
v -1.6 0.5 0.2
v -0.8 0.4 -0.4
v -0.8 0.4 -2
v -0.8 0.5 -0.4
v -0.8 0.5 -2
v -0.6 0.4 2
v -0.6 0.4 0.2
v -0.6 0.5 2
v -0.6 0.5 0.2
v 1 0.4 2
v 1 0.4 0.2
v 1 0.5 2
v 1 0.5 0.2
v 1.4 0.4 2.8
v 1.4 0.4 2
v 1.4 0.5 2.8
v 1.4 0.5 2
v 1.6 0.4 -0.5
v 1.6 0.4 -1.6
v 1.6 0.5 -0.5
v 1.6 0.5 -1.6
v 2.7 0.4 2.9
v 2.7 0.4 0.9
v 2.7 0.5 2.9
v 2.7 0.5 0.9
v 2.7 0.5 0.6
v 2.7 0.5 0.0999999
v 2.7 2.7 0.6
v 2.7 2.7 0.0999999
v 3 0.4 0.9
v 3 0.4 -1.9
v 3 0.5 0.9
v 3 0.5 -1.9
v 3.2 0 3.2
v 3.2 0 -3.2
v 3.2 0.4 3.2
v 3.2 0.4 -3.2
v 3.2 2.7 1.4
v 3.2 2.7 -0.7
v 3.2 5 1.4
v 3.2 5 -0.7
v -3.2 0 3.2
v -3.2 0.4 3.2
v 3.2 0 3.2
v 3.2 0.4 3.2
v 2.2 0.4 2.9
v 2.2 0.5 2.9
v 2.7 0.4 2.9
v 2.7 0.5 2.9
v -2.5 0.4 2.8
v -2.5 0.6 2.8
v -1.7 0.4 2.8
v -1.7 0.6 2.8
v 1.1 0.4 2.8
v 1.1 0.5 2.8
v 1.4 0.4 2.8
v 1.4 0.5 2.8
v -2.9 0.4 2.3
v -2.9 0.5 2.3
v -2.6 0.4 2.3
v -2.6 0.5 2.3
v -1.7 0.4 2
v -1.7 0.5 2
v -0.6 0.4 2
v -0.6 0.5 2
v -0.3 0.4 2
v -0.3 0.5 2
v 1 0.4 2
v 1 0.5 2
v 1.6 2.7 1.4
v 1.6 5 1.4
v 3.2 2.7 1.4
v 3.2 5 1.4
v 1.8 0.4 0.9
v 1.8 0.5 0.9
v 2.2 0.4 0.9
v 2.2 0.5 0.9
v 2.7 0.4 0.9
v 2.7 0.5 0.9
v 3 0.4 0.9
v 3 0.5 0.9
v -3 1.2 0.6
v -3 2.5 0.6
v -2.2 1.2 0.6
v -2.2 2.5 0.6
v 2.2 0.5 0.6
v 2.2 2.7 0.6
v 2.7 0.5 0.6
v 2.7 2.7 0.6
v -2.8 0.5 0.4
v -2.8 1.2 0.4
v -2.6 0.4 0.4
v -2.6 0.5 0.4
v -2.4 0.4 0.4
v -2.4 1.2 0.4
v -1.6 0.3 0.0999999
v -1.6 0.4 0.0999999
v -1.2 0.3 0.0999999
v -1.2 0.4 0.0999999
v -1.7 0.4 -0.4
v -1.7 0.5 -0.4
v -0.8 0.4 -0.4
v -0.8 0.5 -0.4
v 1.1 0.4 -0.5
v 1.1 0.5 -0.5
v 1.6 0.4 -0.5
v 1.6 0.5 -0.5
v -3.2 0.4 -0.7
v -3.2 0.5 -0.7
v -2.9 0.4 -0.7
v -2.9 0.5 -0.7
v -2.6 0.4 -0.7
v -2.6 0.5 -0.7
v -2.5 1.3 -0.7
v -2.5 2.6 -0.7
v -2.2 0.4 -0.7
v -2.2 0.5 -0.7
v -1.7 1.3 -0.7
v -1.7 2.6 -0.7
v -2.3 0.5 -0.9
v -2.3 1.3 -0.9
v -2.2 0.4 -0.9
v -2.2 0.5 -0.9
v -1.9 0.4 -0.9
v -1.9 1.3 -0.9
v -2.7 0.5 -2.4
v -2.7 0.6 -2.4
v -2.2 0.4 -2.4
v -2.2 0.5 -2.4
v -1.8 0.4 -2.4
v -1.8 0.6 -2.4
v 1.1 0.4 2
v 1.1 0.5 2
v 1.4 0.4 2
v 1.4 0.5 2
v -2.5 0.4 1.3
v -2.5 0.6 1.3
v -1.8 0.4 1.3
v -1.8 0.5 1.3
v -1.7 0.5 1.3
v -1.7 0.6 1.3
v -1.6 0.3 0.4
v -1.6 0.4 0.4
v -1.6 0.5 0.4
v -1.2 0.3 0.4
v -1.2 0.4 0.4
v -1.2 0.5 0.4
v -1.8 0.4 0.2
v -1.8 0.5 0.2
v -1.6 0.4 0.2
v -1.6 0.5 0.2
v -1.2 0.4 0.2
v -1.2 0.5 0.2
v -0.6 0.4 0.2
v -0.6 0.5 0.2
v -0.3 0.4 0.2
v -0.3 0.5 0.2
v 1 0.4 0.2
v 1 0.5 0.2
v -2.8 0.5 0.0999999
v -2.8 1.2 0.0999999
v -2.6 0.4 0.0999999
v -2.6 0.5 0.0999999
v -2.4 0.4 0.0999999
v -2.4 1.2 0.0999999
v 2.2 0.5 0.0999999
v 2.2 2.7 0.0999999
v 2.7 0.5 0.0999999
v 2.7 2.7 0.0999999
v -3 1.2 -0.1
v -3 2.5 -0.1
v -2.2 1.2 -0.1
v -2.2 2.5 -0.1
v 1.6 2.7 -0.7
v 1.6 5 -0.7
v 3.2 2.7 -0.7
v 3.2 5 -0.7
v -2.3 0.5 -1.2
v -2.3 1.3 -1.2
v -2.2 0.4 -1.2
v -2.2 0.5 -1.2
v -1.9 0.4 -1.2
v -1.9 1.3 -1.2
v -2.5 1.3 -1.4
v -2.5 2.6 -1.4
v -1.7 1.3 -1.4
v -1.7 2.6 -1.4
v 1.1 0.4 -1.6
v 1.1 0.5 -1.6
v 1.6 0.4 -1.6
v 1.6 0.5 -1.6
v 1.8 0.4 -1.9
v 1.8 0.5 -1.9
v 3 0.4 -1.9
v 3 0.5 -1.9
v -1.7 0.4 -2
v -1.7 0.5 -2
v -0.8 0.4 -2
v -0.8 0.5 -2
v -3.2 0.4 -2.8
v -3.2 0.5 -2.8
v -2.7 0.4 -2.8
v -2.7 0.5 -2.8
v -3.2 0 -3.2
v -3.2 0.4 -3.2
v -2.7 0.4 -3.2
v -2.7 0.6 -3.2
v -1.8 0.4 -3.2
v -1.8 0.6 -3.2
v 3.2 0 -3.2
v 3.2 0.4 -3.2
v -3.2 0 3.2
v 3.2 0 3.2
v -3.2 0 -3.2
v 3.2 0 -3.2
v -3 1.2 0.6
v -2.2 1.2 0.6
v -2.8 1.2 0.4
v -2.4 1.2 0.4
v -2.8 1.2 0.0999999
v -2.4 1.2 0.0999999
v -3 1.2 -0.1
v -2.2 1.2 -0.1
v -2.5 1.3 -0.7
v -1.7 1.3 -0.7
v -2.3 1.3 -0.9
v -1.9 1.3 -0.9
v -2.3 1.3 -1.2
v -1.9 1.3 -1.2
v -2.5 1.3 -1.4
v -1.7 1.3 -1.4
v 1.6 2.7 1.4
v 3.2 2.7 1.4
v 2.2 2.7 0.6
v 2.7 2.7 0.6
v 2.2 2.7 0.0999999
v 2.7 2.7 0.0999999
v 1.6 2.7 -0.7
v 3.2 2.7 -0.7
v -1.6 0.3 0.4
v -1.2 0.3 0.4
v -1.6 0.3 0.0999999
v -1.2 0.3 0.0999999
v -3.2 0.4 3.2
v 3.2 0.4 3.2
v 2.2 0.4 2.9
v 2.7 0.4 2.9
v -2.5 0.4 2.8
v -1.7 0.4 2.8
v 1.1 0.4 2.8
v 1.4 0.4 2.8
v -2.9 0.4 2.3
v -2.6 0.4 2.3
v -1.7 0.4 2
v -0.6 0.4 2
v -0.3 0.4 2
v 1 0.4 2
v 1.1 0.4 2
v 1.4 0.4 2
v -2.5 0.4 1.3
v -1.8 0.4 1.3
v 1.8 0.4 0.9
v 2.2 0.4 0.9
v 2.7 0.4 0.9
v 3 0.4 0.9
v -2.6 0.4 0.4
v -2.4 0.4 0.4
v -1.8 0.4 0.2
v -1.6 0.4 0.2
v -1.2 0.4 0.2
v -0.6 0.4 0.2
v -0.3 0.4 0.2
v 1 0.4 0.2
v -2.6 0.4 0.0999999
v -2.4 0.4 0.0999999
v -1.6 0.4 0.0999999
v -1.2 0.4 0.0999999
v -1.7 0.4 -0.4
v -0.8 0.4 -0.4
v 1.1 0.4 -0.5
v 1.6 0.4 -0.5
v -3.2 0.4 -0.7
v -2.9 0.4 -0.7
v -2.6 0.4 -0.7
v -2.2 0.4 -0.7
v -2.2 0.4 -0.9
v -1.9 0.4 -0.9
v -2.2 0.4 -1.2
v -1.9 0.4 -1.2
v 1.1 0.4 -1.6
v 1.6 0.4 -1.6
v 1.8 0.4 -1.9
v 3 0.4 -1.9
v -1.7 0.4 -2
v -0.8 0.4 -2
v -2.2 0.4 -2.4
v -1.8 0.4 -2.4
v -3.2 0.4 -2.8
v -2.7 0.4 -2.8
v -3.2 0.4 -3.2
v -2.7 0.4 -3.2
v -1.8 0.4 -3.2
v 3.2 0.4 -3.2
v 2.2 0.5 2.9
v 2.7 0.5 2.9
v 1.1 0.5 2.8
v 1.4 0.5 2.8
v -2.9 0.5 2.3
v -2.6 0.5 2.3
v -1.7 0.5 2
v -0.6 0.5 2
v -0.3 0.5 2
v 1 0.5 2
v 1.1 0.5 2
v 1.4 0.5 2
v -1.8 0.5 1.3
v -1.7 0.5 1.3
v 1.8 0.5 0.9
v 2.2 0.5 0.9
v 2.7 0.5 0.9
v 3 0.5 0.9
v 2.2 0.5 0.6
v 2.7 0.5 0.6
v -2.8 0.5 0.4
v -2.6 0.5 0.4
v -1.6 0.5 0.4
v -1.2 0.5 0.4
v -1.8 0.5 0.2
v -1.6 0.5 0.2
v -1.2 0.5 0.2
v -0.6 0.5 0.2
v -0.3 0.5 0.2
v 1 0.5 0.2
v -2.8 0.5 0.0999999
v -2.6 0.5 0.0999999
v 2.2 0.5 0.0999999
v 2.7 0.5 0.0999999
v -1.7 0.5 -0.4
v -0.8 0.5 -0.4
v 1.1 0.5 -0.5
v 1.6 0.5 -0.5
v -3.2 0.5 -0.7
v -2.9 0.5 -0.7
v -2.6 0.5 -0.7
v -2.2 0.5 -0.7
v -2.3 0.5 -0.9
v -2.2 0.5 -0.9
v -2.3 0.5 -1.2
v -2.2 0.5 -1.2
v 1.1 0.5 -1.6
v 1.6 0.5 -1.6
v 1.8 0.5 -1.9
v 3 0.5 -1.9
v -1.7 0.5 -2
v -0.8 0.5 -2
v -2.7 0.5 -2.4
v -2.2 0.5 -2.4
v -3.2 0.5 -2.8
v -2.7 0.5 -2.8
v -2.5 0.6 2.8
v -1.7 0.6 2.8
v -2.5 0.6 1.3
v -1.7 0.6 1.3
v -2.7 0.6 -2.4
v -1.8 0.6 -2.4
v -2.7 0.6 -3.2
v -1.8 0.6 -3.2
v -3 2.5 0.6
v -2.2 2.5 0.6
v -3 2.5 -0.1
v -2.2 2.5 -0.1
v -2.5 2.6 -0.7
v -1.7 2.6 -0.7
v -2.5 2.6 -1.4
v -1.7 2.6 -1.4
v 1.6 5 1.4
v 3.2 5 1.4
v 1.6 5 -0.7
v 3.2 5 -0.7

# faces
f 3/3/1 2/3/1 1/3/1
f 4/3/1 2/3/1 3/3/1
f 5/3/1 2/3/1 4/3/1
f 6/3/1 2/3/1 5/3/1
f 7/4/1 5/4/1 4/4/1
f 8/4/1 5/4/1 7/4/1
f 11/2/1 10/2/1 9/2/1
f 12/2/1 10/2/1 11/2/1
f 15/4/1 14/4/1 13/4/1
f 16/4/1 14/4/1 15/4/1
f 19/1/1 18/1/1 17/1/1
f 20/1/1 18/1/1 19/1/1
f 24/4/1 22/4/1 21/4/1
f 25/4/1 24/4/1 23/4/1
f 26/4/1 22/4/1 24/4/1
f 26/4/1 24/4/1 25/4/1
f 29/4/1 28/4/1 27/4/1
f 30/4/1 28/4/1 29/4/1
f 33/2/1 32/2/1 31/2/1
f 34/2/1 32/2/1 33/2/1
f 37/1/1 36/1/1 35/1/1
f 38/1/1 36/1/1 37/1/1
f 41/4/1 40/4/1 39/4/1
f 42/4/1 40/4/1 41/4/1
f 45/4/1 44/4/1 43/4/1
f 46/4/1 44/4/1 45/4/1
f 49/3/1 48/3/1 47/3/1
f 50/3/1 48/3/1 49/3/1
f 51/3/1 48/3/1 50/3/1
f 52/4/1 50/4/1 49/4/1
f 53/4/1 50/4/1 52/4/1
f 56/4/1 55/4/1 54/4/1
f 57/4/1 55/4/1 56/4/1
f 62/4/1 59/4/1 58/4/1
f 63/4/1 59/4/1 62/4/1
f 64/4/1 61/4/1 60/4/1
f 65/4/1 61/4/1 64/4/1
f 68/2/1 67/2/1 66/2/1
f 69/2/1 67/2/1 68/2/1
f 72/4/1 71/4/1 70/4/1
f 73/4/1 71/4/1 72/4/1
f 76/4/1 75/4/1 74/4/1
f 77/4/1 75/4/1 76/4/1
f 80/1/1 79/1/1 78/1/1
f 81/1/1 79/1/1 80/1/1
f 82/4/2 83/4/2 86/4/2
f 86/4/2 83/4/2 87/4/2
f 84/4/2 85/4/2 88/4/2
f 88/4/2 85/4/2 89/4/2
f 90/1/2 91/1/2 92/1/2
f 92/1/2 91/1/2 93/1/2
f 94/4/2 95/4/2 98/4/2
f 98/4/2 95/4/2 99/4/2
f 96/4/2 97/4/2 100/4/2
f 100/4/2 97/4/2 101/4/2
f 102/2/2 103/2/2 104/2/2
f 104/2/2 103/2/2 105/2/2
f 106/1/2 107/1/2 108/1/2
f 108/1/2 107/1/2 109/1/2
f 110/4/2 111/4/2 112/4/2
f 112/4/2 111/4/2 113/4/2
f 114/4/2 115/4/2 116/4/2
f 114/4/2 116/4/2 118/4/2
f 116/4/2 117/4/2 118/4/2
f 118/4/2 117/4/2 119/4/2
f 120/2/2 121/2/2 122/2/2
f 122/2/2 121/2/2 123/2/2
f 124/3/2 125/3/2 126/3/2
f 126/3/2 125/3/2 127/3/2
f 127/3/2 125/3/2 128/3/2
f 126/4/2 127/4/2 129/4/2
f 129/4/2 127/4/2 130/4/2
f 131/4/2 132/4/2 133/4/2
f 133/4/2 132/4/2 134/4/2
f 135/4/2 136/4/2 137/4/2
f 137/4/2 136/4/2 138/4/2
f 139/4/2 140/4/2 141/4/2
f 141/4/2 140/4/2 142/4/2
f 143/4/2 144/4/2 145/4/2
f 145/4/2 144/4/2 146/4/2
f 147/4/2 148/4/2 149/4/2
f 149/4/2 148/4/2 150/4/2
f 151/4/2 152/4/2 153/4/2
f 153/4/2 152/4/2 154/4/2
f 155/1/2 156/1/2 157/1/2
f 157/1/2 156/1/2 158/1/2
f 159/4/2 160/4/2 161/4/2
f 161/4/2 160/4/2 162/4/2
f 163/3/2 164/3/2 165/3/2
f 165/3/2 164/3/2 166/3/2
f 167/2/2 168/2/2 169/2/2
f 169/2/2 168/2/2 170/2/2
f 173/3/3 172/3/3 171/3/3
f 174/3/3 172/3/3 173/3/3
f 177/4/3 176/4/3 175/4/3
f 178/4/3 176/4/3 177/4/3
f 181/4/3 180/4/3 179/4/3
f 182/4/3 180/4/3 181/4/3
f 185/4/3 184/4/3 183/4/3
f 186/4/3 184/4/3 185/4/3
f 189/4/3 188/4/3 187/4/3
f 190/4/3 188/4/3 189/4/3
f 193/4/3 192/4/3 191/4/3
f 194/4/3 192/4/3 193/4/3
f 197/4/3 196/4/3 195/4/3
f 198/4/3 196/4/3 197/4/3
f 201/2/3 200/2/3 199/2/3
f 202/2/3 200/2/3 201/2/3
f 205/4/3 204/4/3 203/4/3
f 206/4/3 204/4/3 205/4/3
f 209/4/3 208/4/3 207/4/3
f 210/4/3 208/4/3 209/4/3
f 213/2/3 212/2/3 211/2/3
f 214/2/3 212/2/3 213/2/3
f 217/1/3 216/1/3 215/1/3
f 218/1/3 216/1/3 217/1/3
f 222/1/3 220/1/3 219/1/3
f 223/1/3 222/1/3 221/1/3
f 224/1/3 220/1/3 222/1/3
f 224/1/3 222/1/3 223/1/3
f 227/3/3 226/3/3 225/3/3
f 228/3/3 226/3/3 227/3/3
f 231/4/3 230/4/3 229/4/3
f 232/4/3 230/4/3 231/4/3
f 235/4/3 234/4/3 233/4/3
f 236/4/3 234/4/3 235/4/3
f 239/4/3 238/4/3 237/4/3
f 240/4/3 238/4/3 239/4/3
f 245/4/3 242/4/3 241/4/3
f 246/4/3 242/4/3 245/4/3
f 247/2/3 244/2/3 243/2/3
f 248/2/3 244/2/3 247/2/3
f 252/1/3 250/1/3 249/1/3
f 253/1/3 252/1/3 251/1/3
f 254/1/3 250/1/3 252/1/3
f 254/1/3 252/1/3 253/1/3
f 258/4/3 256/4/3 255/4/3
f 259/4/3 258/4/3 257/4/3
f 260/4/3 256/4/3 258/4/3
f 260/4/3 258/4/3 259/4/3
f 261/4/4 262/4/4 263/4/4
f 263/4/4 262/4/4 264/4/4
f 265/4/4 266/4/4 267/4/4
f 267/4/4 266/4/4 268/4/4
f 268/4/4 266/4/4 269/4/4
f 269/4/4 266/4/4 270/4/4
f 271/3/4 272/3/4 274/3/4
f 272/4/4 273/4/4 275/4/4
f 274/3/4 272/3/4 275/3/4
f 275/4/4 273/4/4 276/4/4
f 277/4/4 278/4/4 279/4/4
f 279/4/4 278/4/4 280/4/4
f 281/4/4 282/4/4 283/4/4
f 283/4/4 282/4/4 284/4/4
f 285/4/4 286/4/4 287/4/4
f 287/4/4 286/4/4 288/4/4
f 289/1/4 290/1/4 292/1/4
f 291/1/4 292/1/4 293/1/4
f 292/1/4 290/1/4 294/1/4
f 293/1/4 292/1/4 294/1/4
f 295/1/4 296/1/4 297/1/4
f 297/1/4 296/1/4 298/1/4
f 299/2/4 300/2/4 301/2/4
f 301/2/4 300/2/4 302/2/4
f 303/2/4 304/2/4 305/2/4
f 305/2/4 304/2/4 306/2/4
f 307/1/4 308/1/4 310/1/4
f 309/1/4 310/1/4 311/1/4
f 310/1/4 308/1/4 312/1/4
f 311/1/4 310/1/4 312/1/4
f 313/2/4 314/2/4 315/2/4
f 315/2/4 314/2/4 316/2/4
f 317/4/4 318/4/4 319/4/4
f 319/4/4 318/4/4 320/4/4
f 321/4/4 322/4/4 323/4/4
f 323/4/4 322/4/4 324/4/4
f 325/4/4 326/4/4 327/4/4
f 327/4/4 326/4/4 328/4/4
f 329/4/4 330/4/4 331/4/4
f 331/4/4 330/4/4 332/4/4
f 333/3/4 334/3/4 335/3/4
f 333/3/4 335/3/4 337/3/4
f 335/4/4 336/4/4 337/4/4
f 337/4/4 336/4/4 338/4/4
f 333/3/4 337/3/4 339/3/4
f 339/3/4 337/3/4 340/3/4
f 343/3/5 342/3/5 341/3/5
f 344/3/5 342/3/5 343/3/5
f 347/2/5 346/2/5 345/2/5
f 348/2/5 346/2/5 347/2/5
f 349/2/5 347/2/5 345/2/5
f 350/2/5 346/2/5 348/2/5
f 351/2/5 349/2/5 345/2/5
f 351/2/5 350/2/5 349/2/5
f 352/2/5 346/2/5 350/2/5
f 352/2/5 350/2/5 351/2/5
f 355/2/5 354/2/5 353/2/5
f 356/2/5 354/2/5 355/2/5
f 357/2/5 355/2/5 353/2/5
f 358/2/5 354/2/5 356/2/5
f 359/2/5 357/2/5 353/2/5
f 359/2/5 358/2/5 357/2/5
f 360/2/5 354/2/5 358/2/5
f 360/2/5 358/2/5 359/2/5
f 363/2/5 362/2/5 361/2/5
f 364/2/5 362/2/5 363/2/5
f 365/2/5 363/2/5 361/2/5
f 366/2/5 362/2/5 364/2/5
f 367/2/5 365/2/5 361/2/5
f 367/2/5 366/2/5 365/2/5
f 368/2/5 362/2/5 366/2/5
f 368/2/5 366/2/5 367/2/5
f 369/3/6 370/3/6 371/3/6
f 371/3/6 370/3/6 372/3/6
f 373/3/6 374/3/6 375/3/6
f 375/3/6 374/3/6 376/3/6
f 373/3/6 375/3/6 377/3/6
f 377/3/6 375/3/6 378/3/6
f 378/3/6 375/3/6 379/3/6
f 379/3/6 375/3/6 380/3/6
f 373/3/6 377/3/6 381/3/6
f 381/3/6 377/3/6 382/3/6
f 378/3/6 379/3/6 383/3/6
f 383/3/6 379/3/6 384/3/6
f 384/3/6 379/3/6 385/3/6
f 385/3/6 379/3/6 386/3/6
f 386/3/6 379/3/6 387/3/6
f 380/3/6 375/3/6 388/3/6
f 382/3/6 377/3/6 389/3/6
f 386/3/6 387/3/6 391/3/6
f 387/3/6 388/3/6 391/3/6
f 388/3/6 375/3/6 391/3/6
f 391/3/6 375/3/6 392/3/6
f 376/3/6 374/3/6 393/3/6
f 393/3/6 374/3/6 394/3/6
f 389/3/6 390/3/6 395/3/6
f 382/3/6 389/3/6 395/3/6
f 395/3/6 390/3/6 396/3/6
f 396/3/6 390/3/6 397/3/6
f 384/3/6 385/3/6 400/3/6
f 400/3/6 385/3/6 401/3/6
f 386/3/6 391/3/6 402/3/6
f 397/3/6 398/3/6 404/3/6
f 396/3/6 397/3/6 404/3/6
f 404/3/6 398/3/6 405/3/6
f 400/3/6 401/3/6 406/3/6
f 401/3/6 402/3/6 406/3/6
f 399/3/6 400/3/6 406/3/6
f 404/3/6 405/3/6 407/3/6
f 405/3/6 406/3/6 407/3/6
f 403/3/6 404/3/6 407/3/6
f 406/3/6 402/3/6 408/3/6
f 407/3/6 406/3/6 408/3/6
f 402/3/6 391/3/6 409/3/6
f 408/3/6 402/3/6 409/3/6
f 409/3/6 391/3/6 410/3/6
f 373/3/6 381/3/6 411/3/6
f 411/3/6 381/3/6 412/3/6
f 403/3/6 407/3/6 413/3/6
f 413/3/6 407/3/6 414/3/6
f 414/3/6 407/3/6 415/3/6
f 415/3/6 407/3/6 416/3/6
f 416/3/6 407/3/6 418/3/6
f 408/3/6 409/3/6 419/3/6
f 410/3/6 391/3/6 420/3/6
f 420/3/6 391/3/6 421/3/6
f 419/3/6 420/3/6 421/3/6
f 394/3/6 374/3/6 422/3/6
f 417/3/6 418/3/6 423/3/6
f 418/3/6 407/3/6 423/3/6
f 419/3/6 421/3/6 424/3/6
f 408/3/6 419/3/6 424/3/6
f 421/3/6 422/3/6 424/3/6
f 417/3/6 423/3/6 425/3/6
f 423/3/6 424/3/6 425/3/6
f 425/3/6 424/3/6 426/3/6
f 427/3/6 428/3/6 429/3/6
f 429/3/6 428/3/6 430/3/6
f 426/3/6 424/3/6 431/3/6
f 424/3/6 422/3/6 432/3/6
f 431/3/6 424/3/6 432/3/6
f 422/3/6 374/3/6 432/3/6
f 435/4/6 436/4/6 443/4/6
f 443/4/6 436/4/6 444/4/6
f 439/4/6 440/4/6 446/4/6
f 433/4/6 434/4/6 448/4/6
f 448/4/6 434/4/6 449/4/6
f 447/4/6 448/4/6 451/4/6
f 449/4/6 450/4/6 451/4/6
f 448/4/6 449/4/6 451/4/6
f 451/4/6 450/4/6 452/4/6
f 437/4/6 438/4/6 453/4/6
f 453/4/6 438/4/6 454/4/6
f 446/4/6 440/4/6 455/4/6
f 445/4/6 446/4/6 455/4/6
f 455/4/6 440/4/6 456/4/6
f 445/4/6 455/4/6 457/4/6
f 457/4/6 455/4/6 458/4/6
f 456/4/6 440/4/6 459/4/6
f 459/4/6 440/4/6 460/4/6
f 441/4/6 442/4/6 461/4/6
f 461/4/6 442/4/6 462/4/6
f 437/4/6 453/4/6 463/4/6
f 447/4/6 451/4/6 465/4/6
f 452/4/6 450/4/6 466/4/6
f 463/4/6 464/4/6 472/4/6
f 437/4/6 463/4/6 472/4/6
f 472/4/6 464/4/6 473/4/6
f 471/4/6 472/4/6 475/4/6
f 473/4/6 474/4/6 475/4/6
f 472/4/6 473/4/6 475/4/6
f 475/4/6 474/4/6 476/4/6
f 471/4/6 475/4/6 477/4/6
f 469/4/6 470/4/6 479/4/6
f 479/4/6 470/4/6 480/4/6
f 447/4/6 465/4/6 481/4/6
f 465/4/6 466/4/6 481/4/6
f 466/4/6 450/4/6 482/4/6
f 481/4/6 466/4/6 482/4/6
f 467/4/6 468/4/6 483/4/6
f 483/4/6 468/4/6 484/4/6
f 477/4/6 478/4/6 485/4/6
f 471/4/6 477/4/6 485/4/6
f 485/4/6 478/4/6 486/4/6
f 471/4/6 485/4/6 487/4/6
f 487/4/6 485/4/6 488/4/6
f 489/4/6 490/4/6 491/4/6
f 491/4/6 490/4/6 492/4/6
f 493/4/6 494/4/6 495/4/6
f 495/4/6 494/4/6 496/4/6
f 497/2/6 498/2/6 499/2/6
f 499/2/6 498/2/6 500/2/6
f 501/2/6 502/2/6 503/2/6
f 503/2/6 502/2/6 504/2/6
f 505/2/6 506/2/6 507/2/6
f 507/2/6 506/2/6 508/2/6
